REM DIRINDEX 1\2\6,1\2\7,1\2\8,1\3\9,1\3\10,1\3\11,1\4\12,1\4\13,1\4\14,1\5\15,1\5\16,1\5\17,1\5\18
REM DIRNAME folder01,folder02,folder03,folder04,folder05,folder06,folder07,folder08,folder09,folder10,folder11,folder12,folder13,folder14,folder15,folder16,folder17,folder18
TITLE ""
FILE "" MP3
  TRACK 01 AUDIO
    TITLE "16:cjc019_6333"
    INDEX 01 00:00:00
  TRACK 02 AUDIO
    TITLE "0:"
    INDEX 01 00:00:70
  TRACK 03 AUDIO
    TITLE "18:cjc019_6334"
    INDEX 01 00:01:56
  TRACK 04 AUDIO
    TITLE "0:"
    INDEX 01 00:02:67
  TRACK 05 AUDIO
    TITLE "17:cjc019_6335"
    INDEX 01 00:03:43
  TRACK 06 AUDIO
    TITLE "0:"
    INDEX 01 00:04:52
  TRACK 07 AUDIO
    TITLE "16:cjc019_6336"
    INDEX 01 00:06:37
  TRACK 08 AUDIO
    TITLE "0:"
    INDEX 01 00:07:64
  TRACK 09 AUDIO
    TITLE "18:cjc019_6337"
    INDEX 01 00:08:50
  TRACK 10 AUDIO
    TITLE "0:"
    INDEX 01 00:10:45
  TRACK 11 AUDIO
    TITLE "17:cjc019_6338"
    INDEX 01 00:11:27
  TRACK 12 AUDIO
    TITLE "0:"
    INDEX 01 00:12:52
  TRACK 13 AUDIO
    TITLE "16:cjc019_6339"
    INDEX 01 00:14:37
  TRACK 14 AUDIO
    TITLE "0:"
    INDEX 01 00:15:70
  TRACK 15 AUDIO
    TITLE "18:cjc019_6340"
    INDEX 01 00:16:49
  TRACK 16 AUDIO
    TITLE "0:"
    INDEX 01 00:18:54
  TRACK 17 AUDIO
    TITLE "17:cjc019_6341"
    INDEX 01 00:19:36
  TRACK 18 AUDIO
    TITLE "0:"
    INDEX 01 00:20:73
  TRACK 19 AUDIO
    TITLE "16:cjc019_6342"
    INDEX 01 00:22:50
  TRACK 20 AUDIO
    TITLE "0:"
    INDEX 01 00:23:61
  TRACK 21 AUDIO
    TITLE "18:cjc019_6343"
    INDEX 01 00:24:43
  TRACK 22 AUDIO
    TITLE "0:"
    INDEX 01 00:27:16
  TRACK 23 AUDIO
    TITLE "17:cjc019_6344"
    INDEX 01 00:27:67
  TRACK 24 AUDIO
    TITLE "0:"
    INDEX 01 00:29:07
  TRACK 25 AUDIO
    TITLE "16:cjc019_6345"
    INDEX 01 00:30:65
  TRACK 26 AUDIO
    TITLE "0:"
    INDEX 01 00:32:25
  TRACK 27 AUDIO
    TITLE "18:cjc019_6346"
    INDEX 01 00:33:09
  TRACK 28 AUDIO
    TITLE "0:"
    INDEX 01 00:34:24
  TRACK 29 AUDIO
    TITLE "17:cjc019_6347"
    INDEX 01 00:35:02
  TRACK 30 AUDIO
    TITLE "0:"
    INDEX 01 00:36:44
  TRACK 31 AUDIO
    TITLE "16:cjc019_6348"
    INDEX 01 00:38:26
  TRACK 32 AUDIO
    TITLE "0:"
    INDEX 01 00:39:31
  TRACK 33 AUDIO
    TITLE "18:cjc019_6349"
    INDEX 01 00:40:11
  TRACK 34 AUDIO
    TITLE "0:"
    INDEX 01 00:42:29
  TRACK 35 AUDIO
    TITLE "17:cjc019_6350"
    INDEX 01 00:43:05
  TRACK 36 AUDIO
    TITLE "0:"
    INDEX 01 00:44:09
  TRACK 37 AUDIO
    TITLE "16:cjc019_6351"
    INDEX 01 00:45:71
  TRACK 38 AUDIO
    TITLE "0:"
    INDEX 01 00:47:19
  TRACK 39 AUDIO
    TITLE "18:cjc019_6352"
    INDEX 01 00:48:00
  TRACK 40 AUDIO
    TITLE "0:"
    INDEX 01 00:50:25
  TRACK 41 AUDIO
    TITLE "17:cjc019_6353"
    INDEX 01 00:50:74
  TRACK 42 AUDIO
    TITLE "0:"
    INDEX 01 00:52:18
  TRACK 43 AUDIO
    TITLE "16:cjc019_6354"
    INDEX 01 00:53:74
  TRACK 44 AUDIO
    TITLE "0:"
    INDEX 01 00:55:08
  TRACK 45 AUDIO
    TITLE "18:cjc019_6355"
    INDEX 01 00:55:63
  TRACK 46 AUDIO
    TITLE "0:"
    INDEX 01 00:58:36
  TRACK 47 AUDIO
    TITLE "17:cjc019_6356"
    INDEX 01 00:59:18
  TRACK 48 AUDIO
    TITLE "0:"
    INDEX 01 01:00:25
  TRACK 49 AUDIO
    TITLE "16:cjc019_6357"
    INDEX 01 01:02:03
  TRACK 50 AUDIO
    TITLE "0:"
    INDEX 01 01:03:26
  TRACK 51 AUDIO
    TITLE "18:cjc019_6358"
    INDEX 01 01:04:07
  TRACK 52 AUDIO
    TITLE "0:"
    INDEX 01 01:08:31
  TRACK 53 AUDIO
    TITLE "17:cjc019_6359"
    INDEX 01 01:09:09
  TRACK 54 AUDIO
    TITLE "0:"
    INDEX 01 01:10:28
  TRACK 55 AUDIO
    TITLE "16:cjc019_6360"
    INDEX 01 01:12:07
  TRACK 56 AUDIO
    TITLE "0:"
    INDEX 01 01:13:45
  TRACK 57 AUDIO
    TITLE "18:cjc019_6361"
    INDEX 01 01:14:31
  TRACK 58 AUDIO
    TITLE "0:"
    INDEX 01 01:15:60
  TRACK 59 AUDIO
    TITLE "17:cjc019_6362"
    INDEX 01 01:16:40
  TRACK 60 AUDIO
    TITLE "0:"
    INDEX 01 01:18:07
  TRACK 61 AUDIO
    TITLE "16:cjc019_6363"
    INDEX 01 01:19:72
  TRACK 62 AUDIO
    TITLE "0:"
    INDEX 01 01:21:10
  TRACK 63 AUDIO
    TITLE "18:cjc019_6364"
    INDEX 01 01:21:65
  TRACK 64 AUDIO
    TITLE "0:"
    INDEX 01 01:23:07
  TRACK 65 AUDIO
    TITLE "17:cjc019_6365"
    INDEX 01 01:23:60
  TRACK 66 AUDIO
    TITLE "0:"
    INDEX 01 01:25:08
  TRACK 67 AUDIO
    TITLE "16:cjc019_6366"
    INDEX 01 01:26:64
  TRACK 68 AUDIO
    TITLE "0:"
    INDEX 01 01:27:67
  TRACK 69 AUDIO
    TITLE "18:cjc019_6367"
    INDEX 01 01:28:51
  TRACK 70 AUDIO
    TITLE "0:"
    INDEX 01 01:29:45
  TRACK 71 AUDIO
    TITLE "17:cjc019_6368"
    INDEX 01 01:30:15
  TRACK 72 AUDIO
    TITLE "0:"
    INDEX 01 01:31:24
  TRACK 73 AUDIO
    TITLE "16:cjc019_6369"
    INDEX 01 01:33:09
  TRACK 74 AUDIO
    TITLE "0:"
    INDEX 01 01:34:18
  TRACK 75 AUDIO
    TITLE "18:cjc019_6370"
    INDEX 01 01:35:02
  TRACK 76 AUDIO
    TITLE "0:"
    INDEX 01 01:38:69
  TRACK 77 AUDIO
    TITLE "17:cjc019_6371"
    INDEX 01 01:39:51
  TRACK 78 AUDIO
    TITLE "0:"
    INDEX 01 01:40:64
  TRACK 79 AUDIO
    TITLE "16:cjc019_6372"
    INDEX 01 01:42:51
  TRACK 80 AUDIO
    TITLE "0:"
    INDEX 01 01:44:03
  TRACK 81 AUDIO
    TITLE "18:cjc019_6373"
    INDEX 01 01:44:60
  TRACK 82 AUDIO
    TITLE "0:"
    INDEX 01 01:48:65
  TRACK 83 AUDIO
    TITLE "17:cjc019_6374"
    INDEX 01 01:49:43
  TRACK 84 AUDIO
    TITLE "0:"
    INDEX 01 01:51:03
  TRACK 85 AUDIO
    TITLE "16:cjc019_6375"
    INDEX 01 01:52:59
  TRACK 86 AUDIO
    TITLE "0:"
    INDEX 01 01:54:25
  TRACK 87 AUDIO
    TITLE "18:cjc019_6376"
    INDEX 01 01:55:01
  TRACK 88 AUDIO
    TITLE "0:"
    INDEX 01 01:56:28
  TRACK 89 AUDIO
    TITLE "17:cjc019_6377"
    INDEX 01 01:57:06
  TRACK 90 AUDIO
    TITLE "0:"
    INDEX 01 01:58:46
  TRACK 91 AUDIO
    TITLE "16:cjc019_6378"
    INDEX 01 02:00:29
  TRACK 92 AUDIO
    TITLE "0:"
    INDEX 01 02:01:45
  TRACK 93 AUDIO
    TITLE "18:cjc019_6379"
    INDEX 01 02:02:26
  TRACK 94 AUDIO
    TITLE "0:"
    INDEX 01 02:04:45
  TRACK 95 AUDIO
    TITLE "17:cjc019_6380"
    INDEX 01 02:05:31
  TRACK 96 AUDIO
    TITLE "0:"
    INDEX 01 02:06:48
  TRACK 97 AUDIO
    TITLE "16:cjc019_6381"
    INDEX 01 02:08:37
  TRACK 98 AUDIO
    TITLE "0:"
    INDEX 01 02:09:48
  TRACK 99 AUDIO
    TITLE "18:cjc019_6382"
    INDEX 01 02:10:40
  TRACK 100 AUDIO
    TITLE "0:"
    INDEX 01 02:12:40
  TRACK 101 AUDIO
    TITLE "17:cjc019_6383"
    INDEX 01 02:13:18
  TRACK 102 AUDIO
    TITLE "0:"
    INDEX 01 02:14:35
  TRACK 103 AUDIO
    TITLE "16:cjc019_6384"
    INDEX 01 02:16:24
  TRACK 104 AUDIO
    TITLE "0:"
    INDEX 01 02:17:30
  TRACK 105 AUDIO
    TITLE "18:cjc019_6385"
    INDEX 01 02:18:16
  TRACK 106 AUDIO
    TITLE "0:"
    INDEX 01 02:20:22
  TRACK 107 AUDIO
    TITLE "17:cjc019_6386"
    INDEX 01 02:20:71
  TRACK 108 AUDIO
    TITLE "0:"
    INDEX 01 02:22:11
